<svg xmlns="http://www.w3.org/2000/svg" viewBox="0 0 440 160" width="440" height="160">
  <defs>
    <linearGradient id="blue" x1="0%" y1="0%" x2="100%" y2="100%">
      <stop offset="0%" style="stop-color:#60a5fa"/>
      <stop offset="100%" style="stop-color:#3b82f6"/>
    </linearGradient>
  </defs>

  <g fill="url(#blue)">
    <!-- G -->
    <rect x="20" y="20" width="20" height="20" rx="2"/>
    <rect x="40" y="20" width="20" height="20" rx="2"/>
    <rect x="60" y="20" width="20" height="20" rx="2"/>
    <rect x="80" y="20" width="20" height="20" rx="2"/>
    <rect x="100" y="20" width="20" height="20" rx="2"/>
    <rect x="20" y="40" width="20" height="20" rx="2"/>
    <rect x="40" y="40" width="20" height="20" rx="2"/>
    <rect x="20" y="60" width="20" height="20" rx="2"/>
    <rect x="100" y="60" width="20" height="20" rx="2"/>
    <rect x="20" y="80" width="20" height="20" rx="2"/>
    <rect x="60" y="80" width="20" height="20" rx="2"/>
    <rect x="80" y="80" width="20" height="20" rx="2"/>
    <rect x="100" y="80" width="20" height="20" rx="2"/>
    <rect x="20" y="100" width="20" height="20" rx="2"/>
    <rect x="40" y="100" width="20" height="20" rx="2"/>
    <rect x="100" y="100" width="20" height="20" rx="2"/>
    <rect x="20" y="120" width="20" height="20" rx="2"/>
    <rect x="40" y="120" width="20" height="20" rx="2"/>
    <rect x="60" y="120" width="20" height="20" rx="2"/>
    <rect x="80" y="120" width="20" height="20" rx="2"/>
    <rect x="100" y="120" width="20" height="20" rx="2"/>

    <!-- V -->
    <rect x="150" y="20" width="20" height="20" rx="2"/>
    <rect x="170" y="20" width="20" height="20" rx="2"/>
    <rect x="250" y="20" width="20" height="20" rx="2"/>
    <rect x="270" y="20" width="20" height="20" rx="2"/>
    <rect x="150" y="40" width="20" height="20" rx="2"/>
    <rect x="170" y="40" width="20" height="20" rx="2"/>
    <rect x="250" y="40" width="20" height="20" rx="2"/>
    <rect x="270" y="40" width="20" height="20" rx="2"/>
    <rect x="170" y="60" width="20" height="20" rx="2"/>
    <rect x="190" y="60" width="20" height="20" rx="2"/>
    <rect x="230" y="60" width="20" height="20" rx="2"/>
    <rect x="250" y="60" width="20" height="20" rx="2"/>
    <rect x="170" y="80" width="20" height="20" rx="2"/>
    <rect x="190" y="80" width="20" height="20" rx="2"/>
    <rect x="230" y="80" width="20" height="20" rx="2"/>
    <rect x="250" y="80" width="20" height="20" rx="2"/>
    <rect x="190" y="100" width="20" height="20" rx="2"/>
    <rect x="210" y="100" width="20" height="20" rx="2"/>
    <rect x="230" y="100" width="20" height="20" rx="2"/>
    <rect x="200" y="120" width="20" height="20" rx="2"/>
    <rect x="220" y="120" width="20" height="20" rx="2"/>

    <!-- B -->
    <rect x="320" y="20" width="20" height="20" rx="2"/>
    <rect x="340" y="20" width="20" height="20" rx="2"/>
    <rect x="360" y="20" width="20" height="20" rx="2"/>
    <rect x="380" y="20" width="20" height="20" rx="2"/>
    <rect x="320" y="40" width="20" height="20" rx="2"/>
    <rect x="400" y="40" width="20" height="20" rx="2"/>
    <rect x="320" y="60" width="20" height="20" rx="2"/>
    <rect x="340" y="60" width="20" height="20" rx="2"/>
    <rect x="360" y="60" width="20" height="20" rx="2"/>
    <rect x="380" y="60" width="20" height="20" rx="2"/>
    <rect x="320" y="80" width="20" height="20" rx="2"/>
    <rect x="400" y="80" width="20" height="20" rx="2"/>
    <rect x="320" y="100" width="20" height="20" rx="2"/>
    <rect x="400" y="100" width="20" height="20" rx="2"/>
    <rect x="320" y="120" width="20" height="20" rx="2"/>
    <rect x="340" y="120" width="20" height="20" rx="2"/>
    <rect x="360" y="120" width="20" height="20" rx="2"/>
    <rect x="380" y="120" width="20" height="20" rx="2"/>
  </g>
</svg>